# xmcd
#
# Track frame offsets: 
#        150
#        20368
#        39428
#        60883
#        77993
#        94543
#        111880
#        128023
#        144218
#        163213
#
# Disc length: 2450 seconds
#
# Revision: 0
# Processed by: cddbd v1.5.2PL0 Copyright (c) Steve Scherf et al.
# Submitted via: ExactAudioCopy v1.0b3
#
DISCID=7309900a
DTITLE=The Manhattans - Black Tie
DYEAR=1981
DGENRE=Soul
TTITLE0=Just One Moment Away
TTITLE1=You Stand Out
TTITLE2=Let Your Love Come Down
TTITLE3=Honey, Honey
TTITLE4=When You See Me Laughing
TTITLE5=I Wanta Thank You
TTITLE6=Deep Water
TTITLE7=Just Can't Seem To Get Next To You
TTITLE8=I Was Made For You
TTITLE9=When I Leave Tomorrow
EXTD=
EXTT0=
EXTT1=
EXTT2=
EXTT3=
EXTT4=
EXTT5=
EXTT6=
EXTT7=
EXTT8=
EXTT9=
PLAYORDER=
